<?xml version="1.0" encoding="UTF-8" standalone="no"?>
<!DOCTYPE svg PUBLIC "-//W3C//DTD SVG 1.1//EN"
 "http://www.w3.org/Graphics/SVG/1.1/DTD/svg11.dtd">
<!-- Generated by graphviz version 2.40.1 (20161225.0304)
 -->
<!-- Title: %3 Pages: 1 -->
<svg width="686pt" height="510pt"
 viewBox="0.00 0.00 686.33 510.00" xmlns="http://www.w3.org/2000/svg" xmlns:xlink="http://www.w3.org/1999/xlink">
<g id="graph0" class="graph" transform="scale(1 1) rotate(0) translate(4 506)">
<title>%3</title>
<polygon fill="#ffffff" stroke="transparent" points="-4,4 -4,-506 682.3313,-506 682.3313,4 -4,4"/>
<g id="clust1" class="cluster">
<title>cluster_verfifiableData</title>
<polygon fill="none" stroke="#000000" points="276.3313,-108 276.3313,-294 652.3313,-294 652.3313,-108 276.3313,-108"/>
<text text-anchor="middle" x="464.3313" y="-282" font-family="monospace" font-size="10.00" fill="#000000">Monetha&#39;s Verifiable Data Layer</text>
</g>
<g id="clust2" class="cluster">
<title>cluster_customersBackend</title>
<polygon fill="none" stroke="#000000" points="24.3313,-302 24.3313,-394 652.3313,-394 652.3313,-302 24.3313,-302"/>
<text text-anchor="middle" x="338.3313" y="-382" font-family="monospace" font-size="10.00" fill="#000000">Your backend</text>
</g>
<g id="clust3" class="cluster">
<title>cluster_customersFrontEnd</title>
<polygon fill="none" stroke="#000000" points="15.3313,-402 15.3313,-494 265.3313,-494 265.3313,-402 15.3313,-402"/>
<text text-anchor="middle" x="140.3313" y="-482" font-family="monospace" font-size="10.00" fill="#000000">Your frontend</text>
</g>
<g id="clust4" class="cluster">
<title>cluster_decetralizedNetwork</title>
<polygon fill="none" stroke="#000000" points="24.3313,-8 24.3313,-100 670.3313,-100 670.3313,-8 24.3313,-8"/>
<text text-anchor="middle" x="347.3313" y="-88" font-family="monospace" font-size="10.00" fill="#000000">Decentralized Network</text>
</g>
<!-- go_verifiable_data -->
<g id="node1" class="node">
<title>go_verifiable_data</title>
<polygon fill="#d3d3d3" stroke="#000000" points="644.3313,-268 536.3313,-268 536.3313,-210 644.3313,-210 644.3313,-268"/>
<text text-anchor="middle" x="590.3313" y="-241.8" font-family="monospace" font-size="14.00" fill="#000000">Golang </text>
<text text-anchor="middle" x="590.3313" y="-227.8" font-family="monospace" font-size="14.00" fill="#000000">SDK</text>
</g>
<!-- contracts -->
<g id="node4" class="node">
<title>contracts</title>
<polygon fill="#d3d3d3" stroke="#000000" points="392.3313,-174 284.3313,-174 284.3313,-116 392.3313,-116 392.3313,-174"/>
<text text-anchor="middle" x="338.3313" y="-147.8" font-family="monospace" font-size="14.00" fill="#000000">Smart </text>
<text text-anchor="middle" x="338.3313" y="-133.8" font-family="monospace" font-size="14.00" fill="#000000"> contracts</text>
</g>
<!-- go_verifiable_data&#45;&gt;contracts -->
<g id="edge1" class="edge">
<title>go_verifiable_data&#45;&gt;contracts</title>
<path fill="none" stroke="#c0c0c0" d="M536.1852,-213.6579C533.2024,-212.3926 530.237,-211.165 527.3313,-210 486.2366,-193.5232 439.154,-177.3234 402.2618,-165.2178"/>
<polygon fill="#c0c0c0" stroke="#c0c0c0" points="403.2197,-161.8488 392.6272,-162.0733 401.0477,-168.5034 403.2197,-161.8488"/>
</g>
<!-- ipfs -->
<g id="node12" class="node">
<title>ipfs</title>
<polygon fill="#d3d3d3" stroke="#000000" points="662.3313,-74 518.3313,-74 518.3313,-16 662.3313,-16 662.3313,-74"/>
<text text-anchor="middle" x="590.3313" y="-40.8" font-family="monospace" font-size="14.00" fill="#000000">IPFS</text>
</g>
<!-- go_verifiable_data&#45;&gt;ipfs -->
<g id="edge11" class="edge">
<title>go_verifiable_data&#45;&gt;ipfs</title>
<path fill="none" stroke="#c0c0c0" d="M590.3313,-209.9562C590.3313,-176.6691 590.3313,-121.9255 590.3313,-84.7125"/>
<polygon fill="#c0c0c0" stroke="#c0c0c0" points="593.8314,-84.2423 590.3313,-74.2423 586.8314,-84.2423 593.8314,-84.2423"/>
</g>
<!-- js_verifiable_data -->
<g id="node2" class="node">
<title>js_verifiable_data</title>
<polygon fill="#d3d3d3" stroke="#000000" points="392.3313,-268 284.3313,-268 284.3313,-210 392.3313,-210 392.3313,-268"/>
<text text-anchor="middle" x="338.3313" y="-241.8" font-family="monospace" font-size="14.00" fill="#000000">Javascript </text>
<text text-anchor="middle" x="338.3313" y="-227.8" font-family="monospace" font-size="14.00" fill="#000000">SDK</text>
</g>
<!-- js_verifiable_data&#45;&gt;contracts -->
<g id="edge2" class="edge">
<title>js_verifiable_data&#45;&gt;contracts</title>
<path fill="none" stroke="#c0c0c0" d="M338.3313,-209.7731C338.3313,-201.7268 338.3313,-192.8655 338.3313,-184.3487"/>
<polygon fill="#c0c0c0" stroke="#c0c0c0" points="341.8314,-184.2088 338.3313,-174.2088 334.8314,-184.2089 341.8314,-184.2088"/>
</g>
<!-- js_verifiable_data&#45;&gt;ipfs -->
<g id="edge12" class="edge">
<title>js_verifiable_data&#45;&gt;ipfs</title>
<path fill="none" stroke="#c0c0c0" d="M376.0583,-209.9562C420.9674,-175.3834 495.9425,-117.6644 544.2426,-80.481"/>
<polygon fill="#c0c0c0" stroke="#c0c0c0" points="546.5576,-83.1159 552.3465,-74.2423 542.2875,-77.5691 546.5576,-83.1159"/>
</g>
<!-- utils -->
<g id="node3" class="node">
<title>utils</title>
<polygon fill="#d3d3d3" stroke="#000000" points="518.3313,-268 410.3313,-268 410.3313,-210 518.3313,-210 518.3313,-268"/>
<text text-anchor="middle" x="464.3313" y="-241.8" font-family="monospace" font-size="14.00" fill="#000000">CLI </text>
<text text-anchor="middle" x="464.3313" y="-227.8" font-family="monospace" font-size="14.00" fill="#000000"> utils</text>
</g>
<!-- ethereum -->
<g id="node13" class="node">
<title>ethereum</title>
<polygon fill="#d3d3d3" stroke="#000000" points="176.3313,-74 32.3313,-74 32.3313,-16 176.3313,-16 176.3313,-74"/>
<text text-anchor="middle" x="104.3313" y="-40.8" font-family="monospace" font-size="14.00" fill="#000000">ethereum</text>
</g>
<!-- contracts&#45;&gt;ethereum -->
<g id="edge10" class="edge">
<title>contracts&#45;&gt;ethereum</title>
<path fill="none" stroke="#c0c0c0" d="M284.0844,-133.4104C254.1348,-125.9453 216.7506,-114.8406 185.3313,-100 173.4511,-94.3885 161.3604,-87.1514 150.2696,-79.782"/>
<polygon fill="#c0c0c0" stroke="#c0c0c0" points="152.2372,-76.8874 142.0033,-74.1455 148.2936,-82.6709 152.2372,-76.8874"/>
</g>
<!-- quorum -->
<g id="node14" class="node">
<title>quorum</title>
<polygon fill="#d3d3d3" stroke="#000000" points="500.3313,-74 356.3313,-74 356.3313,-16 500.3313,-16 500.3313,-74"/>
<text text-anchor="middle" x="428.3313" y="-47.8" font-family="monospace" font-size="14.00" fill="#000000">Quorum </text>
<text text-anchor="middle" x="428.3313" y="-33.8" font-family="monospace" font-size="14.00" fill="#000000"> private ledger</text>
</g>
<!-- contracts&#45;&gt;quorum -->
<g id="edge8" class="edge">
<title>contracts&#45;&gt;quorum</title>
<path fill="none" stroke="#c0c0c0" d="M364.605,-115.807C374.2166,-105.1275 385.2154,-92.9066 395.3393,-81.6578"/>
<polygon fill="#c0c0c0" stroke="#c0c0c0" points="398.0925,-83.8307 402.1806,-74.0564 392.8894,-79.1479 398.0925,-83.8307"/>
</g>
<!-- besu -->
<g id="node15" class="node">
<title>besu</title>
<polygon fill="#d3d3d3" stroke="#000000" points="338.3313,-74 194.3313,-74 194.3313,-16 338.3313,-16 338.3313,-74"/>
<text text-anchor="middle" x="266.3313" y="-47.8" font-family="monospace" font-size="14.00" fill="#000000">Hyperledger BESU </text>
<text text-anchor="middle" x="266.3313" y="-33.8" font-family="monospace" font-size="14.00" fill="#000000"> private ledger</text>
</g>
<!-- contracts&#45;&gt;besu -->
<g id="edge9" class="edge">
<title>contracts&#45;&gt;besu</title>
<path fill="none" stroke="#c0c0c0" d="M317.3124,-115.807C309.771,-105.3329 301.1621,-93.3761 293.193,-82.3079"/>
<polygon fill="#c0c0c0" stroke="#c0c0c0" points="295.9354,-80.1267 287.2519,-74.0564 290.2546,-84.2168 295.9354,-80.1267"/>
</g>
<!-- go&#45;api -->
<g id="node5" class="node">
<title>go&#45;api</title>
<polygon fill="#d3d3d3" stroke="#000000" points="644.3313,-368 536.3313,-368 536.3313,-310 644.3313,-310 644.3313,-368"/>
<text text-anchor="middle" x="590.3313" y="-341.8" font-family="monospace" font-size="14.00" fill="#000000">API </text>
<text text-anchor="middle" x="590.3313" y="-327.8" font-family="monospace" font-size="14.00" fill="#000000"> Golang</text>
</g>
<!-- go&#45;api&#45;&gt;go_verifiable_data -->
<g id="edge4" class="edge">
<title>go&#45;api&#45;&gt;go_verifiable_data</title>
<path fill="none" stroke="#c0c0c0" d="M590.3313,-309.807C590.3313,-299.949 590.3313,-288.7777 590.3313,-278.2698"/>
<polygon fill="#c0c0c0" stroke="#c0c0c0" points="593.8314,-278.0563 590.3313,-268.0564 586.8314,-278.0564 593.8314,-278.0563"/>
</g>
<!-- node&#45;api -->
<g id="node6" class="node">
<title>node&#45;api</title>
<polygon fill="#d3d3d3" stroke="#000000" points="392.3313,-368 284.3313,-368 284.3313,-310 392.3313,-310 392.3313,-368"/>
<text text-anchor="middle" x="338.3313" y="-341.8" font-family="monospace" font-size="14.00" fill="#000000">API </text>
<text text-anchor="middle" x="338.3313" y="-327.8" font-family="monospace" font-size="14.00" fill="#000000"> NodeJS</text>
</g>
<!-- node&#45;api&#45;&gt;js_verifiable_data -->
<g id="edge5" class="edge">
<title>node&#45;api&#45;&gt;js_verifiable_data</title>
<path fill="none" stroke="#c0c0c0" d="M338.3313,-309.807C338.3313,-299.949 338.3313,-288.7777 338.3313,-278.2698"/>
<polygon fill="#c0c0c0" stroke="#c0c0c0" points="341.8314,-278.0563 338.3313,-268.0564 334.8314,-278.0564 341.8314,-278.0563"/>
</g>
<!-- core&#45;api -->
<g id="node7" class="node">
<title>core&#45;api</title>
<polygon fill="#d3d3d3" stroke="#000000" points="518.3313,-368 410.3313,-368 410.3313,-310 518.3313,-310 518.3313,-368"/>
<text text-anchor="middle" x="464.3313" y="-341.8" font-family="monospace" font-size="14.00" fill="#000000">API </text>
<text text-anchor="middle" x="464.3313" y="-327.8" font-family="monospace" font-size="14.00" fill="#000000"> .NET Core</text>
</g>
<!-- core&#45;api&#45;&gt;utils -->
<g id="edge6" class="edge">
<title>core&#45;api&#45;&gt;utils</title>
<path fill="none" stroke="#c0c0c0" d="M464.3313,-309.807C464.3313,-299.949 464.3313,-288.7777 464.3313,-278.2698"/>
<polygon fill="#c0c0c0" stroke="#c0c0c0" points="467.8314,-278.0563 464.3313,-268.0564 460.8314,-278.0564 467.8314,-278.0563"/>
</g>
<!-- someotherapis -->
<g id="node8" class="node">
<title>someotherapis</title>
<polygon fill="#d3d3d3" stroke="#000000" points="266.3313,-368 158.3313,-368 158.3313,-310 266.3313,-310 266.3313,-368"/>
<text text-anchor="middle" x="212.3313" y="-334.8" font-family="monospace" font-size="14.00" fill="#000000">...</text>
</g>
<!-- RDS -->
<g id="node9" class="node">
<title>RDS</title>
<path fill="#d3d3d3" stroke="#000000" d="M140.3313,-362.7273C140.3313,-365.6367 116.1277,-368 86.3313,-368 56.535,-368 32.3313,-365.6367 32.3313,-362.7273 32.3313,-362.7273 32.3313,-315.2727 32.3313,-315.2727 32.3313,-312.3633 56.535,-310 86.3313,-310 116.1277,-310 140.3313,-312.3633 140.3313,-315.2727 140.3313,-315.2727 140.3313,-362.7273 140.3313,-362.7273"/>
<path fill="none" stroke="#000000" d="M140.3313,-362.7273C140.3313,-359.8179 116.1277,-357.4545 86.3313,-357.4545 56.535,-357.4545 32.3313,-359.8179 32.3313,-362.7273"/>
<text text-anchor="middle" x="86.3313" y="-334.8" font-family="monospace" font-size="14.00" fill="#000000">RDS</text>
</g>
<!-- web&#45;app -->
<g id="node10" class="node">
<title>web&#45;app</title>
<polygon fill="#d3d3d3" stroke="#000000" points="257.3313,-468 149.3313,-468 149.3313,-410 257.3313,-410 257.3313,-468"/>
<text text-anchor="middle" x="203.3313" y="-434.8" font-family="monospace" font-size="14.00" fill="#000000">web&#45;app</text>
</g>
<!-- web&#45;app&#45;&gt;js_verifiable_data -->
<g id="edge7" class="edge">
<title>web&#45;app&#45;&gt;js_verifiable_data</title>
<path fill="none" stroke="#c0c0c0" d="M159.4339,-409.8342C153.221,-406.7244 146.7561,-403.979 140.3313,-402 127.5605,-398.0663 29.4607,-403.7582 20.3313,-394 -7.6033,-364.141 -5.6204,-333.5976 20.3313,-302 51.7933,-263.6935 190.5233,-248.2751 274.0032,-242.3836"/>
<polygon fill="#c0c0c0" stroke="#c0c0c0" points="274.4086,-245.8642 284.1487,-241.6952 273.9347,-238.8803 274.4086,-245.8642"/>
</g>
<!-- web&#45;app&#45;&gt;go&#45;api -->
<g id="edge3" class="edge">
<title>web&#45;app&#45;&gt;go&#45;api</title>
<path fill="none" stroke="#c0c0c0" d="M257.438,-435.2433C336.7829,-429.1033 480.3755,-415.4132 527.3313,-394 537.6478,-389.2954 547.5327,-382.343 556.2894,-374.9519"/>
<polygon fill="#c0c0c0" stroke="#c0c0c0" points="558.8523,-377.3563 563.9941,-368.0927 554.1978,-372.1279 558.8523,-377.3563"/>
</g>
<!-- mobile&#45;app -->
<g id="node11" class="node">
<title>mobile&#45;app</title>
<polygon fill="#d3d3d3" stroke="#000000" points="131.3313,-468 23.3313,-468 23.3313,-410 131.3313,-410 131.3313,-468"/>
<text text-anchor="middle" x="77.3313" y="-434.8" font-family="monospace" font-size="14.00" fill="#000000">mobile&#45;app</text>
</g>
</g>
</svg>
